:version 1.10
:name ASF
:units
  mass 1
  length 1
  angle deg
:documentation
  ASF file generated by Kaydara
:root
  axis xyz
  order  tx ty tz rx ry rz
  position 0 0 0
  orientation 0 0 0
:bonedata
  begin
    id 1
    name LeftUpLegDummy
    direction 1 -2.30186e-007 -8.31532e-007
    length 2.93387
    axis 0 0 0 xyz
  end
  begin
    id 2
    name LeftUpLeg
    direction -1.82929e-007 -1 -1.48925e-009
    length 17.3336
    axis -3.48766 0.00143442 -0.000521554 xyz
    dof rx ry rz
  end
  begin
    id 3
    name LeftLeg
    direction -1.82929e-007 -1 -5.23717e-011
    length 14.9995
    axis 3.68178 -0.00654042 -0.000282425 xyz
    dof rx ry rz
  end
  begin
    id 4
    name LeftFoot
    direction 8.31532e-007 -4.54534e-011 1
    length 6.74421
    axis 1.87234e-006 4.66016e-005 -5.96866e-006 xyz
    dof rx ry rz
  end
  begin
    id 5
    name LeftToes
    direction 0.00818058 -0.00485161 0.999955
    length 3.85048
    axis 1.06247e-005 4.65869e-005 -5.96999e-006 xyz
    dof rx ry rz
  end
  begin
    id 6
    name SpineDummy
    direction -5.8607e-008 0.943407 -0.331637
    length 5.93572
    axis 0 0 0 xyz
  end
  begin
    id 7
    name Spine
    direction -1.04988e-007 0.999988 0.00495137
    length 10.1015
    axis -0.001389 0.000121417 6.61666e-006 xyz
    dof rx ry rz
  end
  begin
    id 8
    name Spine1
    direction 0 0 0
    length 0
    axis -0.001389 0.00012144 6.56766e-006 xyz
    dof rx ry rz
  end
  begin
    id 9
    name RightShoulderDummy
    direction -0.98348 0.17941 -0.0240696
    length 3.59882
    axis -0.001389 0.00012144 6.56766e-006 xyz
  end
  begin
    id 10
    name RightShoulder
    direction -0.978693 0.204882 0.0135597
    length 2.70001
    axis 0.215806 0.000203631 -0.00679732 xyz
    dof rx ry rz
  end
  begin
    id 11
    name RightArm
    direction -1 3.85509e-006 8.31394e-007
    length 10.2459
    axis -23.2009 -0.134239 -0.964098 xyz
    dof rx ry rz
  end
  begin
    id 12
    name RightForeArm
    direction -1 3.85569e-006 8.3129e-007
    length 8.16799
    axis -9.92322 0.0658061 0.17887 xyz
    dof rx ry rz
  end
  begin
    id 13
    name RightHand
    direction -0.992843 -0.0414604 0.112003
    length 5.28593
    axis -0.00960638 0.00330669 -0.185225 xyz
    dof rx ry rz
  end
  begin
    id 14
    name LeftShoulder1Dummy
    direction 0.983523 0.179172 -0.0240748
    length 3.59866
    axis -0.001389 0.00012144 6.56766e-006 xyz
  end
  begin
    id 15
    name LeftShoulder1
    direction 0.978627 0.205195 0.0135605
    length 2.70019
    axis -0.001389 0.00012144 6.57583e-006 xyz
    dof rx ry rz
  end
  begin
    id 16
    name LeftArm
    direction 1 3.51895e-006 -8.60188e-007
    length 10.2459
    axis -23.1894 0.134785 0.967513 xyz
    dof rx ry rz
  end
  begin
    id 17
    name LeftForeArm
    direction 1 3.51921e-006 -7.32029e-007
    length 8.16799
    axis -9.91835 -0.0656957 -0.177789 xyz
    dof rx ry rz
  end
  begin
    id 18
    name LeftHand
    direction 0.992938 -0.0411636 0.11126
    length 5.32135
    axis -0.00960237 -0.00340661 0.185177 xyz
    dof rx ry rz
  end
  begin
    id 19
    name HEadDummy
    direction 1.01974e-006 0.999861 -0.016675
    length 2.99946
    axis -0.001389 0.00012144 6.56766e-006 xyz
  end
  begin
    id 20
    name HEad
    direction -0.0222689 0.980941 0.193023
    length 5.12695
    axis -0.001389 0.00012144 6.56766e-006 xyz
    dof rx ry rz
  end
  begin
    id 21
    name RightUpLegDummy
    direction -1 2.30186e-007 8.31532e-007
    length 2.93387
    axis 0 0 0 xyz
  end
  begin
    id 22
    name RightUpLeg
    direction -1.82966e-007 -1 1.56832e-007
    length 17.3336
    axis -3.4909 -0.000906625 0.00028951 xyz
    dof rx ry rz
  end
  begin
    id 23
    name RightLeg
    direction -1.82786e-007 -1 -1.80317e-007
    length 14.9995
    axis 3.68513 0.0193739 -0.131021 xyz
    dof rx ry rz
  end
  begin
    id 24
    name RightFoot
    direction 8.31721e-007 -4.63324e-011 1
    length 6.74421
    axis 4.81691e-005 -0.120479 -0.188785 xyz
    dof rx ry rz
  end
  begin
    id 25
    name RightToes
    direction 0.00124746 -0.014064 0.9999
    length 3.85082
    axis 0.000481921 0.542163 -0.142575 xyz
    dof rx ry rz
  end
:hierarchy
  begin
    root LeftUpLegDummy SpineDummy RightUpLegDummy
    LeftUpLegDummy LeftUpLeg
    LeftUpLeg LeftLeg
    LeftLeg LeftFoot
    LeftFoot LeftToes
    SpineDummy Spine
    Spine Spine1
    Spine1 RightShoulderDummy LeftShoulder1Dummy HEadDummy
    RightShoulderDummy RightShoulder
    RightShoulder RightArm
    RightArm RightForeArm
    RightForeArm RightHand
    LeftShoulder1Dummy LeftShoulder1
    LeftShoulder1 LeftArm
    LeftArm LeftForeArm
    LeftForeArm LeftHand
    HEadDummy HEad
    RightUpLegDummy RightUpLeg
    RightUpLeg RightLeg
    RightLeg RightFoot
    RightFoot RightToes
  end

:SAMPLES-PER-SECOND 30
:FULLY-SPECIFIED
:DEGREES
157
root  -4.51093 34.6697 37.5931 11.7603 12.1807 -2.32818
LeftUpLeg  -24.4528 10.6606 -3.43457
LeftLeg  10.6105 0.723103 0.0866438
LeftFoot  6.3631 -0.00497542 0.0651615
LeftToes  7.84697 1.61378e-006 8.80029e-008
Spine  5.18741 4.3565 -1.85804
Spine1  9.77937 9.33302 -3.92006
RightShoulder  0.0725449 13.7062 5.89585
RightArm  -71.5211 2.98775 22.2039
RightForeArm  -14.8017 15.205 2.70741
RightHand  0.779608 -10.027 -8.49372
LeftShoulder1  0.0426781 0.775965 -10.7528
LeftArm  -23.3031 10.228 -66.5661
LeftForeArm  27.2544 -17.6163 -3.20339
LeftHand  0.175584 3.23134 5.83641
HEad  -3.87914 -19.7906 -11.4747
RightUpLeg  -16.5023 -24.9975 -1.34243
RightLeg  38.0282 -6.15162 -4.20512
RightFoot  0.142183 -0.00756282 0.0432631
RightToes  -38.6022 -0.213519 -0.307091
158
root  -4.66935 34.7549 37.9588 11.8921 12.3526 -2.56323
LeftUpLeg  -23.9834 11.2928 -2.90409
LeftLeg  10.3647 0.155377 0.0170077
LeftFoot  6.35117 -0.00216981 0.0185653
LeftToes  6.50691 1.61378e-006 8.80029e-008
Spine  5.27874 4.90789 -1.82095
Spine1  9.79568 10.6826 -4.17526
RightShoulder  0.0685015 12.4447 3.93567
RightArm  -64.1692 10.1027 19.4401
RightForeArm  -18.094 25.8938 4.85687
RightHand  4.34337 -21.7555 -21.9499
LeftShoulder1  0.0418339 -0.236974 -9.71257
LeftArm  -24.1714 10.592 -65.545
LeftForeArm  29.9684 -14.7418 -2.65321
LeftHand  0.168228 3.73539 4.77662
HEad  -3.18177 -20.9283 -11.3867
RightUpLeg  -16.4439 -24.0614 -2.1673
RightLeg  29.2953 -6.72872 -3.2212
RightFoot  0.950189 -0.00225679 -0.0253958
RightToes  -38.381 -0.215617 -0.305796
159
root  -4.90076 34.8411 38.3734 12.1239 12.6136 -2.75586
LeftUpLeg  -23.2536 12.1493 -2.33377
LeftLeg  9.41242 -0.73322 -0.0746656
LeftFoot  6.61419 0.00494657 -0.0907913
LeftToes  4.82079 1.61378e-006 8.80029e-008
Spine  4.93237 4.93358 -2.18963
Spine1  9.08379 10.7227 -4.97311
RightShoulder  0.0739702 11.326 1.50514
RightArm  -64.9043 10.8282 24.952
RightForeArm  -26.6204 26.3903 4.9434
RightHand  4.1628 -16.9271 -27.0708
LeftShoulder1  0.0361012 -1.38862 -7.4754
LeftArm  -27.2202 12.0036 -64.7018
LeftForeArm  34.6302 -12.0207 -2.1443
LeftHand  0.176442 3.82326 4.90381
HEad  -1.96884 -21.8022 -9.46682
RightUpLeg  -15.9837 -23.1873 -3.00425
RightLeg  19.2761 -6.47197 -1.80148
RightFoot  3.15154 0.0186571 -0.300586
RightToes  -39.3305 -0.218613 -0.311309
160
root  -5.15899 34.8883 38.8302 12.3843 12.6329 -2.89685
LeftUpLeg  -22.2852 12.2069 -1.48513
LeftLeg  8.2393 -0.610395 -0.0496048
LeftFoot  6.79726 0.00425961 -0.0717354
LeftToes  2.94581 1.61378e-006 8.80029e-008
Spine  4.644 4.23678 -2.32971
Spine1  8.7077 9.07585 -5.01403
RightShoulder  0.0562752 9.4388 2.08942
RightArm  -60.927 9.68872 33.6868
RightForeArm  -6.86971 36.466 7.45822
RightHand  3.04182 -14.819 -22.6991
LeftShoulder1  0.0315057 -0.898311 -7.88127
LeftArm  -29.3722 13.1832 -62.6838
LeftForeArm  37.783 -10.0739 -1.78637
LeftHand  0.222921 4.02277 5.96077
HEad  -1.65959 -21.7218 -8.23838
RightUpLeg  -15.8848 -21.8737 -4.02369
RightLeg  10.4479 -5.57177 -0.657672
RightFoot  5.19608 0.0384117 -0.468901
RightToes  -40.2416 -0.220416 -0.316483
161
root  -5.44307 34.8731 39.2293 12.4822 11.6473 -2.90972
LeftUpLeg  -21.2821 11.0315 -0.297297
LeftLeg  7.67928 1.68168 0.116619
LeftFoot  6.6846 -0.0118828 0.203461
LeftToes  0.363642 1.61378e-006 8.80029e-008
Spine  4.76932 3.87091 -2.03873
Spine1  9.05938 8.31106 -4.40623
RightShoulder  0.0554675 8.9229 4.89972
RightArm  -53.6741 4.90966 35.9569
RightForeArm  7.74527 47.9687 11.2907
RightHand  2.4965 -12.3168 -22.4521
LeftShoulder1  0.0301124 -0.22643 -9.79333
LeftArm  -30.7129 13.6372 -60.7536
LeftForeArm  38.584 -9.12855 -1.61485
LeftHand  0.244684 3.89785 6.79917
HEad  -2.75422 -21.1155 -8.3521
RightUpLeg  -16.8712 -18.4389 -5.56143
RightLeg  4.82986 -6.8193 -0.133851
RightFoot  6.65892 0.0655566 -0.749211
RightToes  -40.1817 -0.219937 -0.320315
162
root  -5.74982 34.8365 39.5593 12.3475 10.265 -2.53144
LeftUpLeg  -20.2112 9.89482 0.536557
LeftLeg  7.54173 4.19141 0.281677
LeftFoot  6.53867 -0.0286995 0.487183
LeftToes  -2.24767 1.61378e-006 8.80029e-008
Spine  4.93898 3.60789 -1.76963
Spine1  9.48685 7.74315 -3.8208
RightShoulder  0.0565645 8.22442 5.50682
RightArm  -48.1717 -1.06853 39.4537
RightForeArm  14.6141 57.3945 16.0529
RightHand  1.63545 -7.6008 -23.8633
LeftShoulder1  0.0298561 -0.188651 -10.2512
LeftArm  -31.708 14.5396 -60.4332
LeftForeArm  37.5741 -8.95392 -1.58447
LeftHand  0.247719 3.9239 6.83983
HEad  -3.5249 -19.7504 -9.21971
RightUpLeg  -19.5845 -16.1568 -7.14134
RightLeg  4.3065 -8.75472 -0.0919701
RightFoot  6.6204 0.07763 -0.964477
RightToes  -40.7565 -0.22619 -0.323182
163
root  -6.12756 34.8301 39.8702 12.3019 9.44118 -2.13672
LeftUpLeg  -19.2644 9.47023 1.16505
LeftLeg  7.06073 5.43736 0.319739
LeftFoot  6.7833 -0.0374217 0.647169
LeftToes  -4.08697 1.61378e-006 8.80029e-008
Spine  5.12203 3.11406 -1.68571
Spine1  9.91178 6.69503 -3.62449
RightShoulder  0.0573066 8.13551 6.04772
RightArm  -43.8043 -7.4474 44.3308
RightForeArm  19.8012 63.8069 21.108
RightHand  0.983177 -4.54431 -24.0004
LeftShoulder1  0.0305673 -0.160391 -9.47794
LeftArm  -32.4776 14.7678 -60.7634
LeftForeArm  37.0338 -8.91691 -1.57836
LeftHand  0.256049 4.15563 6.66749
HEad  -4.04763 -17.8111 -9.30736
RightUpLeg  -21.6096 -15.9288 -7.90169
RightLeg  3.98658 -9.53605 -0.0471036
RightFoot  7.96739 0.115934 -1.28696
RightToes  -41.4786 -0.230401 -0.323321
164
root  -6.55165 34.8139 40.2387 12.3023 9.43546 -1.76687
LeftUpLeg  -18.6724 9.70177 1.68996
LeftLeg  7.0327 5.28993 0.308483
LeftFoot  6.77341 -0.0345755 0.628004
LeftToes  -5.38077 1.61378e-006 8.80029e-008
Spine  5.16297 2.41778 -1.5906
Spine1  10.0739 5.21413 -3.35445
RightShoulder  0.0556402 8.07984 6.26501
RightArm  -40.0584 -13.4492 50.5983
RightForeArm  22.722 66.1485 23.6364
RightHand  1.07436 -4.49183 -26.4827
LeftShoulder1  0.0331566 -0.520891 -9.08856
LeftArm  -31.7531 14.7654 -60.5263
LeftForeArm  37.0054 -9.12738 -1.61625
LeftHand  0.247847 4.12669 6.49024
HEad  -3.86774 -15.9311 -9.30614
RightUpLeg  -22.9045 -17.2609 -7.92623
RightLeg  3.85259 -8.58633 -0.0225301
RightFoot  10.4053 0.172499 -1.51665
RightToes  -40.4086 -0.221755 -0.317419
165
root  -7.0391 34.7476 40.6808 12.1613 9.9248 -1.16025
LeftUpLeg  -18.2059 9.69073 2.19846
LeftLeg  7.75343 4.7918 0.339805
LeftFoot  6.37251 -0.0275061 0.542436
LeftToes  -7.07297 1.61378e-006 8.80029e-008
Spine  5.11687 1.64412 -1.59047
Spine1  10.0709 3.55366 -3.17801
RightShoulder  0.0450742 7.38303 6.51408
RightArm  -38.2526 -17.7993 57.9595
RightForeArm  19.9917 63.1134 20.4477
RightHand  1.21871 -4.9869 -27.0459
LeftShoulder1  0.0401793 -0.413286 -9.46121
LeftArm  -29.2812 13.7541 -59.4985
LeftForeArm  37.1915 -9.4388 -1.67218
LeftHand  0.238378 4.08484 6.29618
HEad  -3.41322 -14.1871 -9.32773
RightUpLeg  -23.5905 -20.0714 -7.32391
RightLeg  4.0432 -5.67718 -0.0337421
RightFoot  11.9707 0.158117 -1.1304
RightToes  -39.6163 -0.215425 -0.312944
